# xmcd CD database file
#
# Track frame offsets:
#	150
#	11107
#	21860
#	33527
#	45532
#	56802
#	74870
#	92472
#	107475
#	121127
#	130472
#	142455
#	154187
#	169722
#	180967
#	190322
#	199617
#	211615
#	222675
#	232730
#	249702
#
# Disc length: 3468 seconds
#
# Revision: 0
# Processed by: cddbd v1.5.2PL0 Copyright (c) Steve Scherf et al.
# Submitted via: CDex 1.51
#
DISCID=340d8a15
DTITLE=Various Artist - 50 Years of Easy-Listening Country
DYEAR=1995
DGENRE=Country
TTITLE0=('Til) I Kissed You
TTITLE1=The Old Lamplighter
TTITLE2=All I Have To Do Is Dream
TTITLE3=After The Fire Is Gone
TTITLE4=Mammas, Don't Let Your Babies Grow Up To Be Cowboys
TTITLE5=I'll Still Be Loving You
TTITLE6=Both To Each Other (Friends And Lovers)
TTITLE7=My Heart Cries For You
TTITLE8=I Forgot More Than You'll Ever Know
TTITLE9=A Bushel And A Peck
TTITLE10=I'll Never Be Free
TTITLE11=San Antonio Rose
TTITLE12=Guitar Boogie
TTITLE13=Last Date
TTITLE14=Yakety Axe
TTITLE15=Dallas
TTITLE16=The Battle Of Kookamonga
TTITLE17=That's My Pa
TTITLE18=I've Got A Tiger By The Tail
TTITLE19=A Boy Named Sue
TTITLE20=When You're Hot, You're Hot
EXTD=YEAR: 1995
EXTT0=
EXTT1=
EXTT2=
EXTT3=
EXTT4=
EXTT5=
EXTT6=
EXTT7=
EXTT8=
EXTT9=
EXTT10=
EXTT11=
EXTT12=
EXTT13=
EXTT14=
EXTT15=
EXTT16=
EXTT17=
EXTT18=
EXTT19=
EXTT20=
PLAYORDER=
